<svg id="svg2" xmlns="http://www.w3.org/2000/svg" width="597.66" height="237.42" viewBox="0 0 597.66 237.42"><path id="path4" d="M195.8,185A128.14,128.14,0,0,1,183,208c-6.7,9.6-12.2,16.2-16.4,19.9-6.6,6-13.6,9.1-21.1,9.3-5.4,0-11.9-1.5-19.5-4.7a55.88,55.88,0,0,0-21-4.6,57.93,57.93,0,0,0-21.6,4.6c-7.7,3.1-13.9,4.7-18.7,4.9q-10.8.45-21.6-9.6c-4.6-4-10.3-10.9-17.2-20.6A143.66,143.66,0,0,1,7.7,171.1C2.6,156.3,0,142,0,128.1,0,112.2,3.4,98.5,10.3,87A61.27,61.27,0,0,1,31.9,65.1a57.77,57.77,0,0,1,29.2-8.3c5.7,0,13.3,1.8,22.6,5.3s15.3,5.3,17.9,5.3c2,0,8.6-2.1,19.9-6.2q16-5.7,27-4.8,30,2.4,45,23.7c-17.9,10.8-26.7,26-26.5,45.4q.3,22.8,16.5,37.8a56.91,56.91,0,0,0,16.4,10.8c-1.2,3.8-2.6,7.4-4.1,10.9ZM150,4.8c0,11.9-4.3,23-13,33.2-10.4,12.2-23.1,19.2-36.7,18.1a31.86,31.86,0,0,1-.3-4.5c0-11.4,5-23.6,13.8-33.6A51.54,51.54,0,0,1,130.6,5.4,50,50,0,0,1,149.8,0c.1,1.6.2,3.2.2,4.8Z"/><path d="M448,233.7V83.7h-1l-61.08,150H360.14l-61.08-150h-1v150H263.9V22.32h43.8L372.45,183.6h1.17L438.37,22.32H482V233.7Z"/><path d="M560.6,58.36h-.88l-54.64,37.5V61.14l55.23-38.82h37.35V233.7H560.6Z"/></svg>
