<?xml version="1.0" encoding="utf-8"?>
<!-- Generator: Adobe Illustrator 25.0.0, SVG Export Plug-In . SVG Version: 6.00 Build 0)  -->
<!DOCTYPE svg PUBLIC "-//W3C//DTD SVG 1.1//EN" "http://www.w3.org/Graphics/SVG/1.1/DTD/svg11.dtd" [
	<!ENTITY ns_extend "http://ns.adobe.com/Extensibility/1.0/">
	<!ENTITY ns_ai "http://ns.adobe.com/AdobeIllustrator/10.0/">
	<!ENTITY ns_graphs "http://ns.adobe.com/Graphs/1.0/">
	<!ENTITY ns_vars "http://ns.adobe.com/Variables/1.0/">
	<!ENTITY ns_imrep "http://ns.adobe.com/ImageReplacement/1.0/">
	<!ENTITY ns_sfw "http://ns.adobe.com/SaveForWeb/1.0/">
	<!ENTITY ns_custom "http://ns.adobe.com/GenericCustomNamespace/1.0/">
	<!ENTITY ns_adobe_xpath "http://ns.adobe.com/XPath/1.0/">
]>
<svg version="1.1" id="Layer_1" xmlns:x="&ns_extend;" xmlns:i="&ns_ai;" xmlns:graph="&ns_graphs;"
	 xmlns="http://www.w3.org/2000/svg" xmlns:xlink="http://www.w3.org/1999/xlink" x="0px" y="0px" viewBox="0 0 200 200"
	 style="enable-background:new 0 0 200 200;" xml:space="preserve">
<style type="text/css">
	.st0{fill:url(#SVGID_1_);}
	.st1{fill:url(#SVGID_2_);}
</style>
<metadata>
	<sfw  xmlns="&ns_sfw;">
		<slices></slices>
		<sliceSourceBounds  bottomLeftOrigin="true" height="194.2" width="157.2" x="21.6" y="-197.1"></sliceSourceBounds>
	</sfw>
</metadata>
<g>
	<linearGradient id="SVGID_1_" gradientUnits="userSpaceOnUse" x1="109.3019" y1="18.6871" x2="224.1276" y2="101.007">
		<stop  offset="0" style="stop-color:#CACAD2"/>
		<stop  offset="0.9774" style="stop-color:#6D6D75"/>
	</linearGradient>
	<path class="st0" d="M138.3,3.2c0.6,9.9-1.7,18.6-7.3,26.8c-5.8,8.7-13.7,14.9-24.2,17.2c-2.3,0.6-4.7,0.6-7.3,0.9
		c-0.6-4.7,0-9,1.2-13.4c4.7-15.1,14.6-25.1,29.4-30c2.3-0.9,4.7-1.2,7-1.7C137.8,3.2,138,3.2,138.3,3.2z"/>
	<linearGradient id="SVGID_2_" gradientUnits="userSpaceOnUse" x1="64.0987" y1="63.7923" x2="156.6171" y2="178.1787">
		<stop  offset="0" style="stop-color:#CACAD2"/>
		<stop  offset="0.9774" style="stop-color:#6D6D75"/>
	</linearGradient>
	<path class="st1" d="M173.6,69.3c-30.3,19.8-26.5,61.8,5.2,76.3c-1.2,2.9-2,5.8-3.2,8.4c-5.2,12.2-12.2,23.3-21.3,33.2
		c-6.1,6.7-12.7,9.8-20.2,9.5c-3.5-0.2-2.1-2.4-6.1-4.1c-4.4-1.7-12.3-7.5-17-8.4c-7.6-1.5-13.6,0.4-20.6,3.3
		c-2.9,1.2-8.1,1-11.3,1.8c-8.2,2.6-13.5,0.9-19.6-4.3c-7-5.8-11.2-9.9-16.1-17.5c-8.4-13.1-11.1-24.9-14-40.1
		c-1.5-7.9-6.1-15.8-5.5-23.9c0.6-13.1,6.8-26.1,15.3-36.6c8.2-10.2,10.3-14.3,26.5-16.4c7.6-0.9,15.1,2,22.1,4.7
		c2,0.6,3.8,1.5,5.8,2.3c5.2,2.3,10.2,2,15.7,0c6.1-2.3,12.5-4.7,18.9-6.1c9.3-2.3,18.6-0.6,27.4,3.2
		C162.8,57.4,168.6,62.3,173.6,69.3z"/>
	<path d="M109.2,189.6c4.7,0.9,9.3,2.6,13.7,4.4c4,1.7,7.6,2.6,11.1,2.8L53.5,53.6c-8.2,3.1-13.4,8-19.1,15.2
		c-8.4,10.5-11.9,22.4-12.5,35.5c-0.6,8.2,0.3,16,1.7,23.9c2.9,15.1,8.4,29.1,16.9,42.2c5,7.6,9.9,14.9,16.9,20.7
		c6.1,5.2,13.1,7.6,21.3,5c3.2-0.9,6.1-2,9-3.2C94.6,189.9,101.6,188.2,109.2,189.6z"/>
</g>
</svg>
