<svg version="1.1" xmlns="http://www.w3.org/2000/svg" xmlns:xlink="http://www.w3.org/1999/xlink"
	 viewBox="0 0 24 24" role="img">
	<title>CodeProject Icon</title>	 
	<path id="svg_2" d="M9.052,21.798c-0.236,0-0.459-0.905-0.463-1.145c-0.007-0.356,0.038-0.755,0.473-0.755
		c0.436,0,0.47,0.398,0.473,0.755C9.542,20.982,9.288,21.798,9.052,21.798z M10.903,23.985c0.729,0.004,3.677,0.151,3.715-0.847
		c0.041-0.998-1.401-1.525-2.234-1.563c-0.837-0.037-2.143,0.467-2.431,0.209c-0.377-0.339,0.281-1.882,0.531-2.188
		c0.172-0.205,0.453-0.524,0.606-0.664c0.594-0.553,0.967-1.32,0.964-2.178c-0.004-0.939-0.281-1.278,0.658-0.531
		c0.325,0.257,0.768,0.59,1.336,0.854c1.139,0.524-1.319-1.68-1.789-2.102c-0.788-0.699-1.045-1.08-0.609-1.354
		c0.346-0.216,0.672-0.459,0.977-0.723c1.196-1.035,2.046-2.605,1.878-4.896C14.354,5.911,10.416,0.024,9.364,0
		c-0.85-0.017-2.578,2.108-3.527,3.257C4.809,4.505,3.201,6.665,2.879,7.934C2.783,8.311,2.746,8.708,2.746,9.113
		c0,1.44,0.75,2.784,1.898,3.744c0.703,0.586,1.481,1.039,0.237,2.311c-0.74,0.758-2.434,2.361-1.453,1.909
		c0.572-0.264,1-0.614,1.34-0.854c0.709-0.504,0.99-0.669,0.833-0.031c-0.034,0.134-0.028,0.274-0.028,0.411
		c0,0.892,0.37,1.69,0.95,2.277c0.151,0.154,0.586,0.486,0.833,0.699c0.586,0.507,1.196,1.865,0.816,2.204
		c-0.288,0.258-1.594-0.246-2.427-0.209c-0.836,0.038-2.275,0.565-2.238,1.563s3.17,0.851,3.9,0.857
		c1.645,0.013,1.09-0.642,1.645-0.631C9.607,23.379,9.052,23.976,10.903,23.985z"/>
	<path id="svg_3" fill="#C3DE6C" d="M9.802,1.187c-0.668-0.017-1.686,1.878-2.43,2.863C6.567,5.115,5.354,7.004,5.1,8.091
		C5.025,8.414,4.997,8.753,4.997,9.099c0,2.51,2.481,4.608,4.792,4.608c1.155,0,2.132-0.604,2.938-1.368
		c0.935-0.888,1.597-2.232,1.47-4.193C14.076,6.36,10.622,1.207,9.802,1.187z"/>
	<path id="svg_4" d="M10.649,10.378c0.336,0.456,0.716,0.775,1.172,0.775c0.919,0,1.662-1.187,1.662-2.646
		c0-1.464-0.743-2.65-1.662-2.65c-0.456,0-0.85,0.309-1.172,0.775C10.491,6.86,10.2,7.042,9.823,6.401
		c-0.35-0.593-0.918-0.922-1.508-0.922c-1.179,0-2.135,1.412-2.135,3.154s0.956,3.154,2.135,3.154c0.737,0,1.371-0.556,1.769-1.389
		C10.238,10.073,10.47,10.135,10.649,10.378z"/>
	<path id="svg_5" fill="#FFFFFF" d="M9.812,8.633c0,1.221-0.671,2.211-1.497,2.211c-0.826,0-1.498-0.991-1.498-2.211
		c0-1.224,0.672-2.215,1.498-2.215C9.141,6.418,9.812,7.409,9.812,8.633z"/>
	<path id="svg_6" fill="#FFFFFF" d="M12.987,8.506c0,1.025-0.521,1.854-1.166,1.854c-0.641,0-1.162-0.83-1.162-1.854
		c0-1.029,0.521-1.858,1.162-1.858C12.465,6.648,12.987,7.478,12.987,8.506z"/>
	<path id="svg_7" fill="#C3DE6C" d="M11.564,16.813c0,1.217-0.99,2.201-2.218,2.201c-1.227,0-2.221-0.984-2.221-2.201
		s0.994-2.205,2.221-2.205C10.574,14.608,11.564,15.597,11.564,16.813z"/>
	<path id="svg_8" d="M9.877,17.434c0,0.229-0.188,0.415-0.418,0.415s-0.418-0.186-0.418-0.415S9.23,17.02,9.459,17.02
		S9.877,17.204,9.877,17.434z"/>
	<path id="svg_9" d="M2.311,17.358c-0.165,0-1.687,0.021-2.163,0.227c-0.473,0.209,0.285,0.507,0.929,0.545
		c0.322,0.021,0.219,0.257,0.075,0.452c-1.155,1.581-0.264,1.262,0.514,0.565c0.192-0.171,0.264,0.056,0.284,0.265
		c0.018,0.206,0.511,1.749,0.665-0.209c0.062-0.81,0.113-1.241,0.076-1.525C2.653,17.396,2.499,17.358,2.311,17.358z"/>
	<path id="svg_10" fill="#C3DE6C" d="M8.037,22.837c-0.284-0.527-1.063-0.452-1.422-0.395c-0.36,0.056-1.724,0.374-1.498,0.771
		c0.229,0.395,1.1,0.433,1.765,0.151C7.543,23.08,8.37,23.451,8.037,22.837z"/>
	<path id="svg_11" d="M15.169,17.358c0.161,0,1.686,0.021,2.163,0.227c0.473,0.209-0.285,0.507-0.933,0.545
		c-0.319,0.021-0.216,0.257-0.075,0.452c1.158,1.581,0.267,1.262-0.511,0.565c-0.192-0.171-0.264,0.056-0.284,0.265
		c-0.021,0.206-0.515,1.749-0.665-0.209c-0.063-0.81-0.113-1.241-0.076-1.525C14.827,17.396,14.977,17.358,15.169,17.358z"/>
	<path id="svg_12" fill="#C3DE6C" d="M10.086,22.837c0.284-0.527,1.063-0.452,1.423-0.395c0.359,0.056,1.728,0.374,1.497,0.771
		c-0.226,0.395-1.1,0.433-1.765,0.151C10.581,23.08,9.754,23.451,10.086,22.837z"/>
	<path id="svg_13" d="M8.915,8.547c0,0.607-0.236,1.101-0.524,1.101c-0.288,0-0.521-0.494-0.521-1.101S8.103,7.447,8.39,7.447
		C8.678,7.447,8.915,7.94,8.915,8.547z"/>
	<path id="svg_14" d="M12.291,8.455c0,0.483-0.188,0.877-0.418,0.877s-0.418-0.394-0.418-0.877c0-0.487,0.188-0.881,0.418-0.881
		S12.291,7.968,12.291,8.455z"/>
</svg>
