<?xml version="1.0" encoding="utf-8"?>
<svg width="660" height="160" xmlns="http://www.w3.org/2000/svg">
	<defs>
		<style>.cls-1{fill:#fff;}.cls-2{fill:#b3ddca;}</style>
	</defs>
	<g>
		<title>CodeProject.AI</title>
		<path id="svg_1" class="cls-1" d="m549.22,119.94l28.57,-87.75l14.15,0l28.57,87.75l-11,0l-8.81,-26.27l-31.71,0l-8.82,26.27l-10.95,0zm22.95,-36l25.4,0l-12.7,-38l-12.7,38z" fill="#231f20"/>
		<path id="svg_2" class="cls-1" d="m619.73,119.94l0,-87.72l11,0l0,87.72l-11,0z" fill="#231f20"/>
		<path id="svg_3" class="cls-1" d="M 56.1 58.8 Q 57.3 59.6 57.5 60.9 Q 57.7 62.1 56.9 63.3 Q 56.2 64.2 55.1 64.3 Q 54 64.4 53 63.9 Q 49.3 61.4 45 60 Q 40.7 58.7 35.7 58.7 Q 29.7 58.7 24.5 60.8 Q 19.3 62.9 15.4 66.9 Q 11.5 70.9 9.4 76.4 Q 7.3 81.8 7.3 88.4 Q 7.3 95.1 9.5 100.6 Q 11.6 106.1 15.6 110 Q 19.5 114 24.6 116.1 Q 29.8 118.1 35.7 118.1 Q 40.6 118.1 44.9 116.8 Q 49.2 115.4 52.9 113 Q 53.9 112.4 55.1 112.6 Q 56.2 112.7 56.9 113.7 Q 57.8 114.8 57.5 116 Q 57.3 117.3 56.2 118 Q 53.7 119.5 50.4 120.9 Q 47 122.3 43.2 123.1 Q 39.5 124 35.7 124 Q 28.6 124 22.3 121.4 Q 16.1 118.8 11.2 114.1 Q 6.4 109.4 3.7 102.9 Q 1 96.4 1 88.4 Q 1 80.6 3.6 74.1 Q 6.3 67.7 11.1 62.9 Q 15.8 58.2 22.1 55.5 Q 28.5 52.8 35.7 52.8 Q 41.3 52.8 46.6 54.4 Q 51.8 56 56.1 58.8 Z M 114.3 97.7 Q 114.3 105.2 111 111.2 Q 107.8 117.2 102.1 120.6 Q 96.5 124 89.2 124 Q 82.2 124 76.5 120.6 Q 70.8 117.2 67.5 111.2 Q 64.2 105.2 64.2 97.7 Q 64.2 90 67.5 84.1 Q 70.8 78.2 76.5 74.7 Q 82.2 71.2 89.2 71.2 Q 96.5 71.2 102.1 74.7 Q 107.8 78.2 111 84.1 Q 114.3 90 114.3 97.7 Z M 108.4 97.7 Q 108.4 91.6 105.9 86.9 Q 103.4 82.2 99.1 79.5 Q 94.8 76.8 89.2 76.8 Q 83.9 76.8 79.5 79.5 Q 75.2 82.2 72.7 86.9 Q 70.1 91.6 70.1 97.7 Q 70.1 103.7 72.7 108.3 Q 75.2 113 79.5 115.7 Q 83.9 118.4 89.2 118.4 Q 94.8 118.4 99.1 115.7 Q 103.4 113 105.9 108.3 Q 108.4 103.7 108.4 97.7 Z M 166.9 49.7 Q 168.2 49.7 169.1 50.6 Q 169.9 51.4 169.9 52.7 L 169.9 120 Q 169.9 121.2 169 122.1 Q 168.1 123 166.9 123 Q 165.7 123 164.8 122.1 Q 164 121.2 164 120 L 164 108.2 L 165.7 106.9 Q 165.7 109.6 164.2 112.7 Q 162.7 115.7 160 118.2 Q 157.2 120.8 153.6 122.4 Q 150 124 145.9 124 Q 139.2 124 133.9 120.5 Q 128.6 117.1 125.6 111.1 Q 122.5 105.2 122.5 97.6 Q 122.5 90 125.6 84 Q 128.6 78.1 133.9 74.6 Q 139.1 71.2 145.8 71.2 Q 149.8 71.2 153.5 72.7 Q 157.1 74.2 160 76.8 Q 162.8 79.3 164.4 82.7 Q 166 86 166 89.5 L 164 88.1 L 164 52.7 Q 164 51.5 164.8 50.6 Q 165.7 49.7 166.9 49.7 Z M 146.3 118.4 Q 151.7 118.4 155.7 115.7 Q 159.7 113 162 108.3 Q 164.4 103.6 164.4 97.6 Q 164.4 91.6 162 86.9 Q 159.7 82.2 155.7 79.5 Q 151.6 76.8 146.3 76.8 Q 141.2 76.8 137.1 79.5 Q 133 82.2 130.7 86.9 Q 128.3 91.6 128.3 97.6 Q 128.3 103.5 130.7 108.2 Q 133 113 137.1 115.7 Q 141.2 118.4 146.3 118.4 Z M 206.8 124 Q 199.2 124 193.4 120.7 Q 187.5 117.5 184.3 111.6 Q 181 105.8 181 98 Q 181 89.5 184.3 83.6 Q 187.6 77.7 192.9 74.4 Q 198.2 71.2 204.2 71.2 Q 208.5 71.2 212.6 72.8 Q 216.7 74.3 219.9 77.3 Q 223.2 80.3 225.1 84.7 Q 227 89 227.2 94.8 Q 227.1 96 226.2 96.8 Q 225.3 97.7 224.1 97.7 L 184.5 97.7 L 183.3 92.3 L 222.3 92.3 L 221 93.5 L 221 91.5 Q 220.6 86.9 218 83.6 Q 215.4 80.3 211.8 78.6 Q 208.1 77 204.2 77 Q 201.2 77 198.1 78.2 Q 194.9 79.3 192.4 81.9 Q 189.9 84.4 188.3 88.3 Q 186.7 92.2 186.7 97.6 Q 186.7 103.4 189.1 108.2 Q 191.5 112.9 196 115.7 Q 200.5 118.4 206.7 118.4 Q 210.2 118.4 213 117.5 Q 215.7 116.5 217.8 114.8 Q 219.9 113.2 221.3 111.4 Q 222.4 110.5 223.5 110.5 Q 224.4 110.5 225.2 111.3 Q 225.9 112.1 225.9 113.1 Q 225.9 114.3 224.9 115.2 Q 222 118.7 217.2 121.4 Q 212.5 124 206.8 124 Z M 266.3 53.7 Q 271.9 53.7 276.1 56.2 Q 280.4 58.7 282.8 63.2 Q 285.3 67.7 285.3 73.4 Q 285.3 79.1 282.8 83.7 Q 280.4 88.4 276.1 91 Q 271.9 93.7 266.3 93.7 L 245.3 93.7 L 245.8 92.7 L 245.8 120 Q 245.8 121.2 244.9 122.1 Q 244 123 242.8 123 Q 241.5 123 240.7 122.1 Q 239.9 121.2 239.9 120 L 239.9 56.7 Q 239.9 55.5 240.8 54.6 Q 241.7 53.7 242.8 53.7 Z M 266.3 88 Q 270.2 88 273 86 Q 275.9 84.1 277.5 80.8 Q 279.2 77.5 279.2 73.4 Q 279.2 69.3 277.5 66.2 Q 275.9 63.1 273 61.3 Q 270.2 59.5 266.3 59.5 L 245.3 59.5 L 245.8 58.7 L 245.8 88.5 L 245.2 88 Z M 298.9 123 Q 297.5 123 296.7 122.1 Q 295.9 121.2 295.9 120 L 295.9 75.7 Q 295.9 74.5 296.7 73.6 Q 297.6 72.7 298.9 72.7 Q 300.1 72.7 301 73.6 Q 301.8 74.5 301.8 75.7 L 301.8 90.5 L 300.3 90.8 Q 300.6 87.4 302.1 83.9 Q 303.5 80.5 306 77.7 Q 308.5 74.8 311.9 73 Q 315.3 71.2 319.6 71.2 Q 321.3 71.2 323 72 Q 324.7 72.7 324.7 74.4 Q 324.7 75.9 323.9 76.7 Q 323.1 77.5 322 77.5 Q 321.1 77.5 320.1 77 Q 319.1 76.5 317.4 76.5 Q 314.6 76.5 311.8 78.1 Q 309.1 79.7 306.8 82.5 Q 304.5 85.3 303.2 88.7 Q 301.8 92.1 301.8 95.6 L 301.8 120 Q 301.8 121.2 300.9 122.1 Q 300 123 298.9 123 Z M 377.5 97.7 Q 377.5 105.2 374.2 111.2 Q 370.9 117.2 365.3 120.6 Q 359.6 124 352.4 124 Q 345.4 124 339.7 120.6 Q 334 117.2 330.7 111.2 Q 327.4 105.2 327.4 97.7 Q 327.4 90 330.7 84.1 Q 334 78.2 339.7 74.7 Q 345.4 71.2 352.4 71.2 Q 359.6 71.2 365.3 74.7 Q 370.9 78.2 374.2 84.1 Q 377.5 90 377.5 97.7 Z M 371.5 97.7 Q 371.5 91.6 369 86.9 Q 366.6 82.2 362.3 79.5 Q 357.9 76.8 352.4 76.8 Q 347.1 76.8 342.7 79.5 Q 338.3 82.2 335.8 86.9 Q 333.3 91.6 333.3 97.7 Q 333.3 103.7 335.8 108.3 Q 338.3 113 342.7 115.7 Q 347.1 118.4 352.4 118.4 Q 357.9 118.4 362.3 115.7 Q 366.6 113 369 108.3 Q 371.5 103.7 371.5 97.7 Z M 395.9 127.6 Q 395.9 132.3 393.6 135.6 Q 391.4 138.9 388.1 140.7 Q 384.9 142.5 381.6 142.5 Q 380.3 142.5 379.6 141.7 Q 378.8 140.9 378.8 139.8 L 378.8 139.4 Q 378.8 138.2 379.6 137.6 Q 380.4 136.9 381.4 136.7 Q 383.7 136.2 385.6 135 Q 387.5 133.8 388.7 131.7 Q 389.9 129.6 389.9 126.7 L 389.9 75.6 Q 389.9 74.4 390.8 73.5 Q 391.6 72.6 392.9 72.6 Q 394.2 72.6 395 73.5 Q 395.9 74.4 395.9 75.6 Z M 392.9 64.8 Q 390.8 64.8 389.8 63.8 Q 388.7 62.9 388.7 61.1 L 388.7 60.1 Q 388.7 58.4 389.9 57.4 Q 391 56.5 393 56.5 Q 394.9 56.5 395.9 57.4 Q 396.9 58.4 396.9 60.1 L 396.9 61.1 Q 396.9 62.9 395.9 63.8 Q 394.9 64.8 392.9 64.8 Z M 436.7 124 Q 429.1 124 423.3 120.7 Q 417.4 117.5 414.1 111.6 Q 410.9 105.8 410.9 98 Q 410.9 89.5 414.2 83.6 Q 417.5 77.7 422.8 74.4 Q 428.1 71.2 434 71.2 Q 438.4 71.2 442.5 72.8 Q 446.6 74.3 449.8 77.3 Q 453.1 80.3 455 84.7 Q 456.9 89 457.1 94.8 Q 457 96 456.1 96.8 Q 455.2 97.7 454 97.7 L 414.3 97.7 L 413.2 92.3 L 452.2 92.3 L 450.9 93.5 L 450.9 91.5 Q 450.5 86.9 447.9 83.6 Q 445.3 80.3 441.7 78.6 Q 438 77 434 77 Q 431.1 77 428 78.2 Q 424.8 79.3 422.3 81.9 Q 419.8 84.4 418.2 88.3 Q 416.6 92.2 416.6 97.6 Q 416.6 103.4 419 108.2 Q 421.4 112.9 425.9 115.7 Q 430.4 118.4 436.6 118.4 Q 440.1 118.4 442.9 117.5 Q 445.6 116.5 447.7 114.8 Q 449.8 113.2 451.2 111.4 Q 452.3 110.5 453.4 110.5 Q 454.3 110.5 455.1 111.3 Q 455.8 112.1 455.8 113.1 Q 455.8 114.3 454.8 115.2 Q 451.9 118.7 447.1 121.4 Q 442.4 124 436.7 124 Z M 490.6 71.2 Q 495.3 71.2 499.3 72.3 Q 503.2 73.3 505.7 75.1 Q 508.1 76.9 508.1 78.9 Q 508.1 79.9 507.4 80.9 Q 506.7 81.8 505.5 81.8 Q 504.3 81.8 503.6 81.2 Q 502.8 80.6 502.1 79.8 Q 501.4 79 500 78.4 Q 498.7 77.8 496.3 77.3 Q 493.9 76.8 490.9 76.8 Q 485.3 76.8 480.9 79.5 Q 476.4 82.3 473.8 87 Q 471.3 91.7 471.3 97.6 Q 471.3 103.5 473.7 108.2 Q 476.2 113 480.6 115.7 Q 484.9 118.4 490.8 118.4 Q 494.7 118.4 496.9 117.8 Q 499.1 117.1 500.7 116.2 Q 502.5 115.1 503.4 114 Q 504.2 113 505.6 113 Q 506.9 113 507.5 113.7 Q 508.2 114.5 508.2 115.7 Q 508.2 117.3 505.9 119.2 Q 503.5 121.1 499.5 122.6 Q 495.4 124 490.2 124 Q 482.7 124 477.1 120.5 Q 471.6 117.1 468.4 111.1 Q 465.3 105.1 465.3 97.6 Q 465.3 90.3 468.5 84.4 Q 471.7 78.5 477.3 74.8 Q 483 71.2 490.6 71.2 Z M 514.8 72.6 L 537.9 72.6 Q 539.1 72.6 539.9 73.5 Q 540.6 74.3 540.6 75.5 Q 540.6 76.6 539.9 77.4 Q 539.1 78.2 537.9 78.2 L 514.8 78.2 Q 513.6 78.2 512.8 77.3 Q 511.9 76.5 511.9 75.4 Q 511.9 74.2 512.8 73.4 Q 513.6 72.6 514.8 72.6 Z M 525 58.7 Q 526.3 58.7 527.1 59.5 Q 528 60.4 528 61.6 L 528 111.3 Q 528 114.1 528.7 115.5 Q 529.5 116.9 530.6 117.3 Q 531.8 117.8 533 117.8 Q 533.8 117.8 534.5 117.5 Q 535.1 117.3 535.9 117.3 Q 536.8 117.3 537.4 118 Q 538.1 118.6 538.1 119.7 Q 538.1 121.1 536.5 122.1 Q 534.9 123 532.7 123 Q 531.8 123 530 122.9 Q 528.3 122.7 526.4 121.8 Q 524.5 120.8 523.3 118.4 Q 522 116.1 522 111.6 L 522 61.6 Q 522 60.4 522.9 59.5 Q 523.7 58.7 525 58.7 Z"></path>

		<rect x="554.7" width="22.1" height="11.6" style="stroke-opacity: 0.33; fill: rgb(179, 221, 202); fill-opacity: 0.33;"/>
		<rect x="344.3" width="22.1" height="11.6" style="stroke-opacity: 0.33; fill: rgb(179, 221, 202); fill-opacity: 0.33;" y="32.4" transform="matrix(0, -1, 1, 0, 610.649994, 397.350006)"/>
		<rect x="601.6" width="22.1" height="11.6" style="stroke-opacity: 0.33; fill: rgb(179, 221, 202); fill-opacity: 0.33;" y="146.3"/>
		<rect x="344.3" width="22.1" height="11.6" style="stroke-opacity: 0.33; fill: rgb(179, 221, 202); fill-opacity: 0.33;" y="32.4" transform="matrix(0, -1, 1, 0, 491.309998, 471.269989)"/>

		<polygon id="svg_4" class="cls-2" points="535.239990234375,55.010009765625 523.7100219726562,55.010009765625 523.7100219726562,1 554.6600341796875,1 554.6600341796875,12.529998779296875 535.239990234375,12.529998779296875 535.239990234375,55.010009765625 " fill="#b3ddca"/>
		<polygon id="svg_5" class="cls-2" points="577.719970703125,158.91998291015625 523.7100219726562,158.91998291015625 523.7100219726562,127.97000122070312 535.239990234375,127.97000122070312 535.239990234375,147.3900146484375 577.719970703125,147.3900146484375 577.719970703125,158.91998291015625 " fill="#b3ddca"/>
		<polygon id="svg_6" class="cls-2" points="654.6500244140625,158.91998291015625 623.7000122070312,158.91998291015625 623.7000122070312,147.3900146484375 643.1199951171875,147.3900146484375 643.1199951171875,104.91000366210938 654.6500244140625,104.91000366210938 654.6500244140625,158.91998291015625 " fill="#b3ddca"/>
		<polygon id="svg_7" class="cls-2" points="654.6500244140625,31.95001220703125 643.1199951171875,31.95001220703125 643.1199951171875,12.529998779296875 600.6400146484375,12.529998779296875 600.6400146484375,1 654.6500244140625,1 654.6500244140625,31.95001220703125 " fill="#b3ddca"/>

		<![CDATA[
		<text letter-spacing="-1.5" font-weight="normal" xml:space="preserve" text-anchor="start" font-family="'Quicksand'" font-size="99" id="svg_24" y="123" x="-3.8" fill="#000000">CodeProject</text>
		]]>
	</g>
</svg>