<?xml version="1.0" encoding="utf-8"?>
<svg id="Layer_2" data-name="Layer 2" viewBox="0 0 354.65 157.92" xmlns="http://www.w3.org/2000/svg">
  <defs>
    <style>.cls-1{fill:#231f20;}.cls-2{fill:#b3ddca;}</style>
  </defs>
  <path class="cls-1" d="M62.51,166.83a14.44,14.44,0,0,1-5.68-11.47h4.38a11.07,11.07,0,0,0,4.37,8.75,16.23,16.23,0,0,0,10.53,3.55q7.1,0,11.47-3.2a10.43,10.43,0,0,0,4.25-8.63q0-4-4.49-6.86t-12.06-3.43q-8-.71-12.77-4.49a11.44,11.44,0,0,1-4.85-9.34,11.17,11.17,0,0,1,4.85-9.7q4.84-3.44,13.6-3.43,8.39,0,13.36,3.67a11.49,11.49,0,0,1,5.08,9.81H90.06a10.83,10.83,0,0,0-4.49-7.21,16,16,0,0,0-9.46-2.6q-6.39,0-10.17,2.6a8,8,0,0,0-3.79,6.86q0,4,4.61,6.85T78.82,142c5.29.48,9.54,2.06,12.78,4.73a13.13,13.13,0,0,1-.83,20.82q-5.44,4-14.66,4A20.26,20.26,0,0,1,62.51,166.83Z" transform="translate(-56.83 -53.06)"/>
  <path class="cls-1" d="M108.49,164.7q-6.15-7.45-6.15-19.63t6.15-19.63q6.15-7.34,16.32-7.33t16.32,6.74q6.15,6.74,6.15,18v2.25H107.07q0,10.29,4.85,16.43a15.6,15.6,0,0,0,12.89,6.16,19.34,19.34,0,0,0,10.88-3.2,17,17,0,0,0,6.86-8.63h4.73a17.66,17.66,0,0,1-7.57,11.59,24.8,24.8,0,0,1-14.9,4.61Q114.64,172,108.49,164.7Zm34.06-24.12V138.8A18,18,0,0,0,136.87,127a17.39,17.39,0,0,0-12.06-4.72,16.74,16.74,0,0,0-11.94,4.84,18.42,18.42,0,0,0-5.8,12.18v1.31Z" transform="translate(-56.83 -53.06)"/>
  <path class="cls-1" d="M156.49,170.26V119.88h4.73v8.51a16.18,16.18,0,0,1,6.5-7.09,18.81,18.81,0,0,1,22.35,2.13,15.63,15.63,0,0,1,5.33,11.82v35h-4.73v-35a11.69,11.69,0,0,0-3.91-8.86,13.13,13.13,0,0,0-9.34-3.67,15.55,15.55,0,0,0-10.52,4A17.42,17.42,0,0,0,161.22,137v33.23Z" transform="translate(-56.83 -53.06)"/>
  <path class="cls-1" d="M209.34,166.83a14.44,14.44,0,0,1-5.68-11.47H208a11.07,11.07,0,0,0,4.37,8.75,16.23,16.23,0,0,0,10.53,3.55q7.09,0,11.47-3.2a10.43,10.43,0,0,0,4.25-8.63q0-4-4.49-6.86t-12.06-3.43q-8-.71-12.77-4.49a11.44,11.44,0,0,1-4.85-9.34,11.17,11.17,0,0,1,4.85-9.7q4.84-3.44,13.6-3.43,8.38,0,13.36,3.67a11.49,11.49,0,0,1,5.08,9.81h-4.49a10.83,10.83,0,0,0-4.49-7.21,16,16,0,0,0-9.46-2.6q-6.39,0-10.17,2.6a8,8,0,0,0-3.79,6.86q0,4,4.61,6.85T225.65,142c5.29.48,9.54,2.06,12.78,4.73a13.15,13.15,0,0,1-.83,20.82q-5.44,4-14.66,4A20.28,20.28,0,0,1,209.34,166.83Z" transform="translate(-56.83 -53.06)"/>
  <path class="cls-1" d="M255.32,164.7q-6.15-7.45-6.14-19.63t6.14-19.63q6.15-7.34,16.32-7.33T288,124.85q6.15,6.74,6.15,18v2.25h-40.2q0,10.29,4.84,16.43a15.6,15.6,0,0,0,12.89,6.16,19.32,19.32,0,0,0,10.88-3.2,17,17,0,0,0,6.86-8.63h4.73a17.66,17.66,0,0,1-7.57,11.59,24.78,24.78,0,0,1-14.9,4.61Q261.47,172,255.32,164.7Zm34.06-24.12V138.8A18,18,0,0,0,283.71,127a17.42,17.42,0,0,0-12.07-4.72,16.74,16.74,0,0,0-11.94,4.84,18.36,18.36,0,0,0-5.79,12.18v1.31Z" transform="translate(-56.83 -53.06)"/>
  <path class="cls-1" d="M299.05,172l28.57-87.75h14.15L370.34,172h-11l-8.81-26.27H318.82L310,172ZM322,136h25.4L334.7,98Z" transform="translate(-56.83 -53.06)"/>
  <path class="cls-1" d="M369.56,172V84.28h11V172Z" transform="translate(-56.83 -53.06)"/>
  <polygon class="cls-2" points="235.24 54.01 223.71 54.01 223.71 0 254.66 0 254.66 11.53 235.24 11.53 235.24 54.01"/>
  <polygon class="cls-2" points="277.72 157.92 223.71 157.92 223.71 126.97 235.24 126.97 235.24 146.39 277.72 146.39 277.72 157.92"/>
  <polygon class="cls-2" points="354.65 157.92 323.7 157.92 323.7 146.39 343.12 146.39 343.12 103.91 354.65 103.91 354.65 157.92"/>
  <polygon class="cls-2" points="354.65 30.95 343.12 30.95 343.12 11.53 300.64 11.53 300.64 0 354.65 0 354.65 30.95"/>
  <rect x="254.7" width="22.1" height="11.6" style="stroke-opacity: 0.33; fill: rgb(179, 221, 202); fill-opacity: 0.33;"/>
  <rect x="344.3" width="22.1" height="11.6" style="stroke-opacity: 0.33; fill: rgb(179, 221, 202); fill-opacity: 0.33;" y="32.4" transform="matrix(0, -1, 1, 0, 310.649994, 397.350006)"/>
  <rect x="301.6" width="22.1" height="11.6" style="stroke-opacity: 0.33; fill: rgb(179, 221, 202); fill-opacity: 0.33;" y="146.3"/>
  <rect x="344.3" width="22.1" height="11.6" style="stroke-opacity: 0.33; fill: rgb(179, 221, 202); fill-opacity: 0.33;" y="32.4" transform="matrix(0, -1, 1, 0, 191.309998, 471.269989)"/>
</svg>